<?xml version="1.0" encoding="utf-8"?>
<!-- Generator: Adobe Illustrator 22.0.0, SVG Export Plug-In . SVG Version: 6.00 Build 0)  -->
<svg version="1.1" id="Layer_1" xmlns="http://www.w3.org/2000/svg" xmlns:xlink="http://www.w3.org/1999/xlink" x="0px" y="0px"
	 viewBox="0 0 389.3 152.6" style="enable-background:new 0 0 389.3 152.6;" xml:space="preserve">
<style type="text/css">
	.st0{fill:#FFFFFF;}
	.st1{fill:#EACA42;}
	.st2{fill:#44D11C;}
	.st3{fill:none;stroke:#000000;stroke-miterlimit:10;}
	.st4{fill:#55D830;}
</style>
<g>
	<path class="st0" d="M33.3,84.8c-5.8,0-10.5-4.7-10.5-10.5v-28c0-5.8,4.7-10.5,10.5-10.5h321c5.8,0,10.5,4.7,10.5,10.5v28
		c0,5.8-4.7,10.5-10.5,10.5H33.3z"/>
	<path d="M354.3,37.3c5,0,9,4,9,9v28c0,5-4,9-9,9h-321c-5,0-9-4-9-9v-28c0-5,4-9,9-9H354.3 M354.3,34.3h-321c-6.6,0-12,5.4-12,12v28
		c0,6.6,5.4,12,12,12h321c6.6,0,12-5.4,12-12v-28C366.3,39.7,360.9,34.3,354.3,34.3L354.3,34.3z"/>
</g>
<g>
	<path class="st0" d="M33.3,152.8c-5.8,0-10.5-4.7-10.5-10.5v-28c0-5.8,4.7-10.5,10.5-10.5h321c5.8,0,10.5,4.7,10.5,10.5v28
		c0,5.8-4.7,10.5-10.5,10.5H33.3z"/>
	<path d="M354.3,105.3c5,0,9,4,9,9v28c0,5-4,9-9,9h-321c-5,0-9-4-9-9v-28c0-5,4-9,9-9H354.3 M354.3,102.3h-321c-6.6,0-12,5.4-12,12
		v28c0,6.6,5.4,12,12,12h321c6.6,0,12-5.4,12-12v-28C366.3,107.7,360.9,102.3,354.3,102.3L354.3,102.3z"/>
</g>
<g>
	<circle class="st1" cx="64.3" cy="60.3" r="16.6"/>
	<path d="M64.3,44c4.3,0,8.4,1.7,11.5,4.8s4.8,7.2,4.8,11.5s-1.7,8.4-4.8,11.5s-7.2,4.8-11.5,4.8s-8.4-1.7-11.5-4.8
		c-3.1-3.1-4.8-7.2-4.8-11.5s1.7-8.4,4.8-11.5S60,44,64.3,44 M64.3,43.3c-9.4,0-17,7.6-17,17s7.6,17,17,17s17-7.6,17-17
		S73.7,43.3,64.3,43.3L64.3,43.3z"/>
</g>
<g>
	<g>
		<path d="M60.1,48c0.7,0,1.4,0,2.1,0c0,0.1,0,0.1,0,0.2c0,1.1,0,2.2,0,3.4c0,0.1,0,0.1,0.1,0.1c0.6,0,1.2,0,1.8,0
			c0.1,0,0.1,0,0.1-0.1c0-1.1,0-2.2,0-3.4c0-0.1,0-0.1,0-0.2c0.7,0,1.4,0,2.1,0c0,0.3,0,0.6,0,0.9c0,0.9,0,1.7,0,2.6
			c0,0.1,0,0.1,0.1,0.1c0.3,0,0.6,0,0.9,0.1c0.7,0.1,1.3,0.2,1.9,0.5c1.5,0.7,2.3,1.9,2.6,3.5c0.2,0.8,0,1.6-0.5,2.3
			c-0.3,0.4-0.7,0.8-1.2,1.2c-0.1,0.1-0.1,0.1,0,0.1c0.4,0.2,0.8,0.5,1.2,0.7c0.5,0.4,1,0.9,1.3,1.5c0.2,0.5,0.3,1,0.4,1.5
			c0.1,0.9-0.1,1.8-0.6,2.7c-0.6,1-1.4,1.7-2.4,2.3c-1.2,0.6-2.4,0.8-3.7,0.8c-0.2,0-0.2,0-0.2,0.2c0,1.1,0,2.2,0,3.4
			c0,0.1,0,0.1-0.1,0.1c-0.6,0-1.2,0-1.8,0c-0.2,0-0.2,0-0.2-0.2c0-1.1,0-2.2,0-3.3c0-0.2,0-0.2-0.2-0.2c-0.6,0-1.1,0-1.7,0
			c-0.1,0-0.1,0-0.1,0.1c0,1.1,0,2.2,0,3.4c0,0.1,0,0.1-0.1,0.1c-0.6,0-1.2,0-1.8,0c-0.2,0-0.2,0-0.2-0.2c0-1.1,0-2.2,0-3.4
			c0-0.2,0-0.2-0.2-0.2c-1.4,0-2.9,0-4.3,0c-0.1,0-0.1,0-0.2,0v-0.1v-0.1c0.2-0.8,0.4-1.6,0.5-2.4c0-0.1,0.1-0.1,0.2-0.1
			c0.7,0,1.4,0,2,0c0.2,0,0.2,0,0.2-0.1c0-3.9,0-7.8,0-11.7c0-0.1,0-0.1-0.1-0.1c-0.9,0-1.8,0-2.6,0c-0.1,0-0.1,0-0.1,0
			c0-0.8,0-1.6,0-2.4c0.1,0,0.1,0,0.2,0c1.4,0,2.9,0,4.3,0c0.2,0,0.2,0,0.2-0.2c0-1.1,0-2.2,0-3.3C60.1,48.2,60.1,48,60.1,48z
			 M62.2,63.5c0,0.8,0,1.6,0,2.4c0,0.1,0,0.1,0.1,0.1c1.2,0,2.3,0,3.4,0c0.4,0,0.8-0.1,1.1-0.1c0.5-0.1,1-0.3,1.4-0.7
			c0.6-0.6,0.7-1.3,0.6-2.1c-0.1-0.9-0.7-1.5-1.5-1.8c-0.5-0.2-1.1-0.3-1.6-0.3c-1.1,0-2.3,0-3.4,0c-0.1,0-0.1,0-0.1,0.1
			C62.2,62,62.2,62.8,62.2,63.5z M62.2,56.5c0,0.7,0,1.5,0,2.2c0,0.1,0,0.1,0.1,0.1c0.9,0,1.8,0,2.7,0c0.4,0,0.8-0.1,1.1-0.2
			c0.9-0.3,1.5-0.9,1.6-1.9c0.1-0.9-0.2-1.6-1-2c-0.5-0.4-1.1-0.5-1.8-0.5c-0.9,0-1.7,0-2.6,0c-0.1,0-0.1,0-0.1,0.1
			C62.2,55,62.2,55.8,62.2,56.5z"/>
	</g>
</g>
<g>
	<g>
		<polygon class="st2" points="64.3,145.9 64.4,145.9 64.3,145.9 		"/>
		<polygon points="64.7,145.9 64.7,145.9 64.4,146.3 64.1,145.9 64.1,145.4 		"/>
	</g>
	<g>
		<polygon class="st2" points="64.4,110.6 64.3,110.7 64.3,110.4 		"/>
		<polygon points="64.7,110.6 64.7,110.6 64.6,110.7 64.4,110.8 64.1,111.1 64.1,110.6 64.4,110.3 64.6,110.4 		"/>
	</g>
	<g>
		<polygon class="st2" points="74.2,119.3 74.2,136.1 64.4,145.9 54.7,136.1 54.7,119.3 64.3,110.7 64.4,110.6 64.5,110.7 		"/>
		<path d="M64.7,110.6L64.7,110.6L64.7,110.6l-0.3-0.3l-0.3,0.3l0,0l-9.7,8.6v17.1l9.7,9.7l0,0l0.3,0.3l0.3-0.3l0,0l9.6-9.6l0.1-0.1
			v-17.1L64.7,110.6z M74,136.1l-9.5,9.5l-9.5-9.5v-16.7l9.2-8.3l0.3-0.3l0.3,0.3l9.2,8.3V136.1z"/>
	</g>
	<g>
		<polygon class="st2" points="64.5,110.4 64.5,110.7 64.4,110.6 		"/>
		<polygon points="64.7,110.6 64.7,111.1 64.4,110.8 64.3,110.7 64.1,110.6 64.1,110.6 64.1,110.6 64.4,110.3 64.6,110.4 		"/>
	</g>
	<g>
		<polygon class="st2" points="64.4,145.9 64.5,145.9 64.5,145.9 		"/>
		<polygon points="64.7,145.4 64.7,145.9 64.4,146.3 64.1,145.9 64.1,145.9 64.1,145.9 64.3,145.8 64.4,145.6 		"/>
	</g>
	<line class="st3" x1="64.4" y1="146.3" x2="64.4" y2="110.6"/>
	<g>
		<g id="XMLID_1_">
			<g>
				<polygon class="st4" points="67.9,125.1 67.9,131.1 64.4,134.6 61,131.1 61,125.1 64.3,121.9 64.4,121.9 64.5,121.9 				"/>
				<path d="M67.9,131.1V125l-3.4-3l-0.1-0.1l-0.1,0.1l-3.4,3v6.1l3.5,3.5L67.9,131.1z M68,124.9v6.1l-3.5,3.5l-3.5-3.5V125l3.5-3.1
					l0,0l0,0L68,124.9z"/>
				<path d="M68,131.1V125l-3.5-3.1l0,0l0,0L61,125v6.1l3.5,3.5L68,131.1z M68,124.9v6.2l0,0l-3.5,3.5l0,0l-0.1,0.1l-0.1-0.1l0,0
					l-3.5-3.5v-6.2l3.5-3.1l0,0l0.1-0.1l0.1,0.1l0,0l0,0L68,124.9z"/>
			</g>
			<g>
				<polygon class="st3" points="64.5,121.8 64.5,121.8 64.5,121.8 64.4,121.7 64.3,121.8 64.3,121.8 60.8,124.9 60.8,131.1 
					64.3,134.6 64.3,134.6 64.4,134.8 64.5,134.6 64.5,134.6 68,131.1 68,131.1 68,124.9 				"/>
				<polygon class="st3" points="67.9,131.1 64.4,134.6 61,131.1 61,125.1 64.3,121.9 64.4,121.9 64.5,121.9 67.9,125.1 				"/>
			</g>
		</g>
	</g>
	<line class="st3" x1="67.9" y1="124.9" x2="74" y2="119.3"/>
	<line class="st3" x1="68" y1="131.1" x2="73.9" y2="136.1"/>
	<line class="st3" x1="61" y1="124.9" x2="54.9" y2="119.3"/>
	<line class="st3" x1="61" y1="131.1" x2="54.7" y2="136.1"/>
</g>
</svg>
