<?xml version="1.0" encoding="utf-8"?>
<!-- Generator: Adobe Illustrator 22.0.0, SVG Export Plug-In . SVG Version: 6.00 Build 0)  -->
<svg version="1.1" id="Layer_1" xmlns="http://www.w3.org/2000/svg" xmlns:xlink="http://www.w3.org/1999/xlink" x="0px" y="0px"
	viewBox="0 0 292.2 302.8" style="enable-background:new 0 0 292.2 302.8;" xml:space="preserve">
<style type="text/css">
	.st0{fill:#44D11C;}
	.st1{fill:none;stroke:#000000;stroke-width:3;stroke-miterlimit:10;}
	.st2{fill:#55D830;}
</style>
<g>
	<g>
		<polygon class="st0" points="269.7,298.8 270.2,299 270.1,299.5 		"/>
		<polygon points="271.4,298.3 271.4,298.3 271,300.2 269.1,299.7 267.7,297.3 		"/>
	</g>
	<g>
		<polygon class="st0" points="185.5,160.1 185.3,160.6 185,160 		"/>
		<polygon points="186.7,159.4 186.7,159.5 186.4,160.3 186.1,161.3 185.6,163 184.2,160.8 184.8,159 186.1,159.2 186.5,159.3 		"/>
	</g>
	<g>
		<polygon class="st0" points="244.7,171.1 285.2,237.3 270.2,299 208.6,284.1 168.1,217.8 185.3,160.6 185.5,160.1 185.9,160.2 		
			"/>
		<path d="M186.7,159.4l-0.1,0l-0.4-0.1l-1.3-0.2l-0.5,1.7l0,0.1l-17.2,57.1l40.9,67l61.1,14.8h0l1.9,0.4l0.4-1.9v0l14.7-60.7
			l0.1-0.4l-40.9-67L186.7,159.4z M284.1,237.4l-14.6,60.3l-60.3-14.6l-40-65.5l16.4-54.7l0.5-1.7l1.8,0.3l56.2,10.4L284.1,237.4z"
			/>
	</g>
	<g>
		<polygon class="st0" points="185.6,159.7 185.9,160.2 185.5,160.1 		"/>
		<polygon points="186.5,159.3 187.9,161.6 186.1,161.3 185.2,161.1 184.4,160.9 184.2,160.9 184.2,160.8 184.8,159 186.1,159.2 		
			"/>
	</g>
	<g>
		<polygon class="st0" points="270.2,299 270.4,298.5 270.7,299.1 		"/>
		<polygon points="270,295.9 271.4,298.3 271,300.2 269.1,299.7 269.1,299.7 269.1,299.6 269.3,298.8 269.5,297.8 		"/>
	</g>
	<line class="st1" x1="271.2" y1="300.3" x2="185.7" y2="160.2"/>
	<g>
		<g id="XMLID_6_">
			<g>
				<path d="M234.2,208l14.9,24.3l0,0.1l-5.3,22l0,0l-0.1,0.7l-0.7-0.1l0,0l-22.2-5.3l-14.9-24.3l6.2-20.7v0l0.2-0.6l0.5,0.1l0.1,0
					h0L234.2,208z M248.7,232.4L234,208.3l-21.4-4l-0.2,0l0,0.2l-6.2,20.8l14.7,24.1l22.4,5.4L248.7,232.4z"/>
				<path d="M234,208.3l14.7,24.1l-5.4,22.4l-22.4-5.4l-14.7-24.1l6.2-20.8l0-0.2l0.2,0L234,208.3z M248.3,232.5l-14.5-23.8
					l-20.4-3.8l-0.6-0.1l-0.2,0.6l-6,19.9l14.5,23.8l21.9,5.3L248.3,232.5z"/>
				<polygon class="st2" points="233.8,208.6 248.3,232.5 243,254.4 221.1,249.1 206.6,225.3 212.5,205.4 212.7,204.8 213.3,204.9 
									"/>
			</g>
			<g>
				<polygon class="st1" points="212.9,204.1 212.8,204.1 212.7,204 212.2,203.9 212,204.6 212,204.6 205.8,225.4 220.7,249.7 
					242.8,255 242.8,255 243.5,255.2 243.7,254.6 243.7,254.6 249,232.5 249.1,232.4 234.2,208 				"/>
				<polygon class="st1" points="248.3,232.5 243,254.4 221.1,249.1 206.6,225.3 212.5,205.4 212.7,204.8 213.3,204.9 233.8,208.6 
									"/>
			</g>
		</g>
	</g>
	<line class="st1" x1="233.7" y1="208.5" x2="244.3" y2="171.9"/>
	<line class="st1" x1="248.8" y1="232.3" x2="283.8" y2="237.5"/>
	<line class="st1" x1="206.7" y1="225" x2="169.2" y2="217.7"/>
	<line class="st1" x1="221.3" y1="249.1" x2="208.6" y2="284.1"/>
</g>
<g>
	<g>
		<polygon class="st0" points="139.8,166.9 140.2,167.2 139.8,167.6 		"/>
		<polygon points="141.6,167.2 141.6,167.2 140.2,168.6 138.8,167.2 138.8,164.5 		"/>
	</g>
	<g>
		<polygon class="st0" points="140.2,4.6 139.8,4.8 139.8,4.2 		"/>
		<polygon points="141.7,4.6 141.6,4.7 141,5.2 140.2,5.8 138.8,7.1 138.8,4.5 140.2,3.2 141.2,4.1 141.6,4.5 		"/>
	</g>
	<g>
		<polygon class="st0" points="185.1,44.7 185.1,122.4 140.2,167.2 95.3,122.4 95.3,44.7 139.8,4.8 140.2,4.6 140.6,4.8 		"/>
		<path d="M141.7,4.6l-0.1-0.1l-0.3-0.3l-1-0.9l-1.4,1.2l-0.1,0.1L94.2,44.3v78.5l44.4,44.4l0,0l1.4,1.4l1.4-1.4l0,0l44.1-44.1
			l0.3-0.3V44.3L141.7,4.6z M184.1,122l-43.9,43.9L96.3,122V45.2l42.5-38.1l1.4-1.2l1.4,1.2l42.5,38.1V122z"/>
	</g>
	<g>
		<polygon class="st0" points="140.6,4.2 140.6,4.8 140.2,4.6 		"/>
		<polygon points="141.6,4.5 141.6,7.1 140.2,5.8 139.5,5.2 138.8,4.7 138.7,4.6 138.8,4.5 140.2,3.2 141.2,4.1 		"/>
	</g>
	<g>
		<polygon class="st0" points="140.2,167.2 140.6,166.9 140.6,167.6 		"/>
		<polygon points="141.6,164.5 141.6,167.2 140.2,168.6 138.8,167.2 138.8,167.2 138.8,167.2 139.5,166.5 140.2,165.8 		"/>
	</g>
	<line class="st1" x1="140.3" y1="168.8" x2="140.3" y2="4.7"/>
	<g>
		<g id="XMLID_5_">
			<g>
				<path d="M156.9,70.8v28.5l-0.1,0.1l-16.1,16.1l0,0l-0.5,0.5l-0.5-0.5l0,0l-16.2-16.2V70.8l16.1-14.4l0,0l0.5-0.4l0.4,0.3
					l0.1,0.1l0,0L156.9,70.8z M156.5,99.2V70.9l-16.2-14.5l-0.1-0.1l-0.1,0.1l-16.2,14.5v28.2l16.3,16.3L156.5,99.2z"/>
				<path d="M156.5,70.9v28.2l-16.3,16.3l-16.3-16.3V70.9L140,56.5l0.1-0.1l0.1,0.1L156.5,70.9z M156.1,99V71.1l-15.5-13.8l-0.5-0.4
					l-0.5,0.4l-15.5,13.8V99l16,15.9L156.1,99z"/>
				<polygon class="st2" points="156.1,71.1 156.1,99 140.2,114.9 124.2,99 124.2,71.1 139.7,57.3 140.2,56.8 140.7,57.3 				"/>
			</g>
			<g>
				<polygon class="st1" points="140.7,56.4 140.7,56.3 140.6,56.2 140.2,55.9 139.7,56.3 139.7,56.4 123.5,70.8 123.5,99.3 
					139.7,115.4 139.7,115.5 140.2,116 140.7,115.5 140.7,115.4 156.7,99.4 156.9,99.3 156.9,70.8 				"/>
				<polygon class="st1" points="156.1,99 140.2,114.9 124.2,99 124.2,71.1 139.7,57.3 140.2,56.8 140.7,57.3 156.1,71.1 				"/>
			</g>
		</g>
	</g>
	<line class="st1" x1="156.1" y1="70.9" x2="184.3" y2="45.2"/>
	<line class="st1" x1="156.6" y1="99.1" x2="183.8" y2="121.9"/>
	<line class="st1" x1="124.5" y1="70.9" x2="96.3" y2="45.2"/>
	<line class="st1" x1="124.5" y1="99.1" x2="95.3" y2="122.4"/>
</g>
<g>
	<g>
		<polygon class="st0" points="101.8,223.7 102.2,224.1 101.8,224.4 		"/>
		<polygon points="103.5,224.1 103.5,224.1 102.2,225.5 100.8,224.1 100.8,221.3 		"/>
	</g>
	<g>
		<polygon class="st0" points="102.2,61.4 101.8,61.7 101.8,61.1 		"/>
		<polygon points="103.6,61.4 103.5,61.5 102.9,62 102.2,62.7 100.8,63.9 100.8,61.3 102.2,60.1 103.1,61 103.5,61.3 		"/>
	</g>
	<g>
		<polygon class="st0" points="147,101.6 147,179.2 102.2,224.1 57.3,179.2 57.3,101.6 101.8,61.7 102.2,61.4 102.5,61.7 		"/>
		<path d="M103.6,61.4l-0.1-0.1l-0.3-0.3l-1-0.9l-1.4,1.2l-0.1,0.1l-44.4,39.7v78.5l44.4,44.4l0,0l1.4,1.4l1.4-1.4l0,0l44.1-44.1
			l0.3-0.3v-78.5L103.6,61.4z M146,178.8l-43.9,43.9l-43.9-43.9V102l42.5-38.1l1.4-1.2l1.4,1.2L146,102V178.8z"/>
	</g>
	<g>
		<polygon class="st0" points="102.5,61.1 102.5,61.7 102.2,61.4 		"/>
		<polygon points="103.5,61.3 103.5,63.9 102.2,62.7 101.4,62 100.8,61.5 100.7,61.4 100.8,61.3 102.2,60.1 103.1,61 		"/>
	</g>
	<g>
		<polygon class="st0" points="102.2,224.1 102.5,223.7 102.5,224.4 		"/>
		<polygon points="103.5,221.3 103.5,224.1 102.2,225.5 100.8,224.1 100.7,224.1 100.8,224.1 101.4,223.4 102.2,222.7 		"/>
	</g>
	<line class="st1" x1="102.3" y1="225.7" x2="102.3" y2="61.6"/>
	<g>
		<g id="XMLID_3_">
			<g>
				<path d="M118.8,127.6v28.5l-0.1,0.1l-16.1,16.1l0,0l-0.5,0.5l-0.5-0.5l0,0l-16.2-16.2v-28.5l16.1-14.4l0,0l0.5-0.4l0.4,0.3
					l0.1,0.1l0,0L118.8,127.6z M118.4,156v-28.2l-16.2-14.5l-0.1-0.1l-0.1,0.1l-16.2,14.5V156l16.3,16.3L118.4,156z"/>
				<path d="M118.4,127.8V156l-16.3,16.3L85.8,156v-28.2l16.2-14.5l0.1-0.1l0.1,0.1L118.4,127.8z M118.1,155.9V128l-15.5-13.8
					l-0.5-0.4l-0.5,0.4L86.1,128v27.9l16,15.9L118.1,155.9z"/>
				<polygon class="st2" points="118.1,128 118.1,155.9 102.2,171.8 86.2,155.9 86.2,128 101.7,114.1 102.2,113.7 102.6,114.1 				
					"/>
			</g>
			<g>
				<polygon class="st1" points="102.6,113.2 102.6,113.2 102.5,113.1 102.2,112.7 101.7,113.2 101.6,113.2 85.4,127.6 85.4,156.2 
					101.6,172.3 101.7,172.3 102.2,172.8 102.6,172.3 102.6,172.3 118.7,156.3 118.8,156.2 118.8,127.6 				"/>
				<polygon class="st1" points="118.1,155.9 102.2,171.8 86.2,155.9 86.2,128 101.7,114.1 102.2,113.7 102.6,114.1 118.1,128 				
					"/>
			</g>
		</g>
	</g>
	<line class="st1" x1="118.1" y1="127.8" x2="146.2" y2="102.1"/>
	<line class="st1" x1="118.6" y1="156" x2="145.8" y2="178.7"/>
	<line class="st1" x1="86.4" y1="127.8" x2="58.3" y2="102.1"/>
	<line class="st1" x1="86.4" y1="156" x2="57.3" y2="179.2"/>
</g>
<g>
	<g>
		<polygon class="st0" points="174.9,224.7 175.3,225.1 174.9,225.4 		"/>
		<polygon points="176.7,225.1 176.7,225.1 175.3,226.5 173.9,225.1 173.9,222.3 		"/>
	</g>
	<g>
		<polygon class="st0" points="175.3,62.4 174.9,62.7 174.9,62 		"/>
		<polygon points="176.8,62.4 176.7,62.5 176.1,63 175.3,63.7 173.9,64.9 173.9,62.3 175.3,61.1 176.3,61.9 176.7,62.3 		"/>
	</g>
	<g>
		<polygon class="st0" points="220.2,102.6 220.2,180.2 175.3,225.1 130.4,180.2 130.4,102.6 174.9,62.7 175.3,62.4 175.7,62.7 		
			"/>
		<path d="M176.8,62.4l-0.1-0.1l-0.3-0.3l-1-0.9l-1.4,1.2l-0.1,0.1l-44.4,39.7v78.5l44.4,44.4l0,0l1.4,1.4l1.4-1.4l0,0l44.1-44.1
			l0.3-0.3v-78.5L176.8,62.4z M219.2,179.8l-43.9,43.9l-43.9-43.9V103l42.5-38.1l1.4-1.2l1.4,1.2l42.5,38.1V179.8z"/>
	</g>
	<g>
		<polygon class="st0" points="175.7,62 175.7,62.7 175.3,62.4 		"/>
		<polygon points="176.7,62.3 176.7,64.9 175.3,63.7 174.6,63 173.9,62.5 173.8,62.4 173.9,62.3 175.3,61.1 176.3,61.9 		"/>
	</g>
	<g>
		<polygon class="st0" points="175.3,225.1 175.7,224.7 175.7,225.4 		"/>
		<polygon points="176.7,222.3 176.7,225.1 175.3,226.5 173.9,225.1 173.9,225.1 173.9,225 174.6,224.3 175.3,223.7 		"/>
	</g>
	<line class="st1" x1="175.4" y1="226.7" x2="175.4" y2="62.5"/>
	<g>
		<g id="XMLID_4_">
			<g>
				<path d="M192,128.6v28.5l-0.1,0.1l-16.1,16.1l0,0l-0.5,0.5l-0.5-0.5l0,0l-16.2-16.2v-28.5l16.1-14.4l0,0l0.5-0.4l0.4,0.3
					l0.1,0.1l0,0L192,128.6z M191.6,157v-28.2l-16.2-14.5l-0.1-0.1l-0.1,0.1L159,128.8V157l16.3,16.3L191.6,157z"/>
				<path d="M191.6,128.8V157l-16.3,16.3L159,157v-28.2l16.2-14.5l0.1-0.1l0.1,0.1L191.6,128.8z M191.2,156.9V129l-15.5-13.8
					l-0.5-0.4l-0.5,0.4L159.3,129v27.9l16,15.9L191.2,156.9z"/>
				<polygon class="st2" points="191.2,129 191.2,156.9 175.3,172.8 159.3,156.9 159.3,129 174.8,115.1 175.3,114.7 175.8,115.1 
									"/>
			</g>
			<g>
				<polygon class="st1" points="175.8,114.2 175.8,114.2 175.7,114.1 175.3,113.7 174.8,114.2 174.8,114.2 158.6,128.6 
					158.6,157.2 174.8,173.3 174.8,173.3 175.3,173.8 175.8,173.3 175.8,173.3 191.8,157.3 192,157.2 192,128.6 				"/>
				<polygon class="st1" points="191.2,156.9 175.3,172.8 159.3,156.9 159.3,129 174.8,115.1 175.3,114.7 175.8,115.1 191.2,129 
									"/>
			</g>
		</g>
	</g>
	<line class="st1" x1="191.2" y1="128.8" x2="219.4" y2="103.1"/>
	<line class="st1" x1="191.7" y1="157" x2="218.9" y2="179.7"/>
	<line class="st1" x1="159.6" y1="128.8" x2="131.4" y2="103.1"/>
	<line class="st1" x1="159.6" y1="157" x2="130.4" y2="180.2"/>
</g>
<g>
	<g>
		<polygon class="st0" points="141.3,281.5 141.7,281.9 141.3,282.3 		"/>
		<polygon points="143.1,281.9 143,281.9 141.7,283.3 140.3,281.9 140.3,279.2 		"/>
	</g>
	<g>
		<polygon class="st0" points="141.7,119.2 141.3,119.5 141.3,118.9 		"/>
		<polygon points="143.2,119.2 143,119.3 142.4,119.9 141.7,120.5 140.3,121.8 140.3,119.1 141.7,117.9 142.7,118.8 143,119.1 		"/>
	</g>
	<g>
		<polygon class="st0" points="186.5,159.4 186.5,237.1 141.7,281.9 96.8,237.1 96.8,159.4 141.3,119.5 141.7,119.2 142,119.5 		"/>
		<path d="M143.2,119.2l-0.1-0.1l-0.3-0.3l-1-0.9l-1.4,1.2l-0.1,0.1L95.7,159v78.5l44.4,44.4l0,0l1.4,1.4l1.4-1.4l0,0l44.1-44.1
			l0.3-0.3V159L143.2,119.2z M185.6,236.7l-43.9,43.9l-43.9-43.9v-76.8l42.5-38.1l1.4-1.2l1.4,1.2l42.5,38.1V236.7z"/>
	</g>
	<g>
		<polygon class="st0" points="142,118.9 142,119.5 141.7,119.2 		"/>
		<polygon points="143,119.1 143,121.8 141.7,120.5 141,119.9 140.3,119.3 140.2,119.2 140.3,119.1 141.7,117.9 142.7,118.8 		"/>
	</g>
	<g>
		<polygon class="st0" points="141.7,281.9 142,281.5 142,282.3 		"/>
		<polygon points="143,279.2 143,281.9 141.7,283.3 140.3,281.9 140.3,281.9 140.3,281.9 141,281.2 141.7,280.5 		"/>
	</g>
	<line class="st1" x1="141.8" y1="283.5" x2="141.8" y2="119.4"/>
	<g>
		<g id="XMLID_1_">
			<g>
				<polygon class="st2" points="157.6,185.8 157.6,213.7 141.7,229.6 125.7,213.7 125.7,185.8 141.2,171.9 141.7,171.5 
					142.2,171.9 				"/>
				<path d="M157.6,213.7v-27.9L142.1,172l-0.5-0.4l-0.5,0.4l-15.5,13.8v27.9l16,15.9L157.6,213.7z M158,185.6v28.2l-16.3,16.3
					l-16.3-16.3v-28.2l16.2-14.5l0.1-0.1l0.1,0.1L158,185.6z"/>
				<path d="M158,213.9v-28.2l-16.2-14.5l-0.1-0.1l-0.1,0.1l-16.2,14.5v28.2l16.3,16.3L158,213.9z M158.4,185.5V214l-0.1,0.1
					l-16.1,16.1l0,0l-0.5,0.5l-0.5-0.5l0,0L125,214v-28.5l16.1-14.4l0,0l0.5-0.4l0.4,0.3l0.1,0.1l0,0L158.4,185.5z"/>
			</g>
			<g>
				<polygon class="st1" points="142.2,171.1 142.2,171 142,170.9 141.7,170.6 141.2,171 141.2,171.1 125,185.5 125,214 
					141.2,230.1 141.2,230.2 141.7,230.7 142.2,230.2 142.2,230.1 158.2,214.1 158.4,214 158.4,185.5 				"/>
				<polygon class="st1" points="157.6,213.7 141.7,229.6 125.7,213.7 125.7,185.8 141.2,171.9 141.7,171.5 142.2,171.9 
					157.6,185.8 				"/>
			</g>
		</g>
	</g>
	<line class="st1" x1="157.6" y1="185.6" x2="185.8" y2="159.9"/>
	<line class="st1" x1="158.1" y1="213.8" x2="185.3" y2="236.6"/>
	<line class="st1" x1="126" y1="185.6" x2="97.8" y2="159.9"/>
	<line class="st1" x1="126" y1="213.8" x2="96.8" y2="237.1"/>
</g>
<g>
	<g>
		<polygon class="st0" points="35.6,293.7 35.9,294.2 35.4,294.4 		"/>
		<polygon points="37.2,294.5 37.2,294.5 35.5,295.5 34.6,293.9 35.3,291.2 		"/>
	</g>
	<g>
		<polygon class="st0" points="76.5,136.6 76,136.9 76.2,136.3 		"/>
		<polygon points="77.9,137 77.8,137.1 77,137.5 76.1,137.9 74.6,138.8 75.2,136.2 76.8,135.4 77.6,136.5 77.8,136.9 		"/>
	</g>
	<g>
		<polygon class="st0" points="109.9,186.8 90.5,261.9 35.9,294.2 3.6,239.5 23,164.4 76,136.9 76.5,136.6 76.8,137 		"/>
		<path d="M77.9,137l-0.1-0.1l-0.2-0.3l-0.7-1.1l-1.6,0.8l-0.1,0.1l-52.9,27.4l-19.6,76l31.9,54.1l0,0l1,1.6l1.6-1l0,0L91,262.8
			l0.3-0.2l19.6-76L77.9,137z M89.6,261.3l-53.4,31.5L4.7,239.4L23.8,165l50.7-26.3l1.6-0.8l1,1.5l31.6,47.5L89.6,261.3z"/>
	</g>
	<g>
		<polygon class="st0" points="76.9,136.4 76.8,137 76.5,136.6 		"/>
		<polygon points="77.8,136.9 77.2,139.5 76.1,137.9 75.6,137.1 75.2,136.4 75.1,136.3 75.2,136.2 76.8,135.4 77.6,136.5 		"/>
	</g>
	<g>
		<polygon class="st0" points="35.9,294.2 36.4,293.9 36.2,294.6 		"/>
		<polygon points="37.9,291.8 37.2,294.5 35.5,295.5 34.6,293.9 34.5,293.8 34.6,293.8 35.4,293.3 36.2,292.8 		"/>
	</g>
	<line class="st1" x1="35.6" y1="295.8" x2="76.6" y2="136.8"/>
	<g>
		<g id="XMLID_2_">
			<g>
				<polygon class="st2" points="75.3,205.1 68.3,232.1 48.9,243.6 37.5,224.2 44.4,197.2 62.8,187.6 63.4,187.3 63.8,187.8 				"/>
				<path d="M68.3,232.1l7-27l-11.5-17.3l-0.3-0.5l-0.6,0.3l-18.4,9.5l-7,27l11.5,19.4L68.3,232.1z M75.7,205l-7.1,27.3l-19.9,11.7
					L37,224.2l7-27.3l19.3-10l0.1-0.1l0.1,0.1L75.7,205z"/>
				<path d="M68.6,232.4l7-27.3l-12-18l-0.1-0.1l-0.1,0.1l-19.3,10l-7,27.3l11.7,19.9L68.6,232.4z M48.3,243.9l-11.6-19.7l7.1-27.6
					l19.2-10l0,0l0.6-0.3l0.3,0.4l0.1,0.1l0,0l12,18L69,232.5l-0.1,0.1l-19.5,11.5l0,0l-0.6,0.3L48.3,243.9L48.3,243.9z"/>
			</g>
			<g>
				<polygon class="st1" points="64.1,186.9 64,186.9 63.9,186.8 63.7,186.3 63.1,186.6 63,186.7 43.8,196.7 36.7,224.2 48.3,243.9 
					48.3,243.9 48.7,244.6 49.3,244.2 49.3,244.2 68.8,232.7 69,232.6 76.1,205 				"/>
				<polygon class="st1" points="68.3,232.1 48.9,243.6 37.5,224.2 44.4,197.2 62.8,187.6 63.4,187.3 63.8,187.8 75.3,205.1 				"/>
			</g>
		</g>
	</g>
	<line class="st1" x1="75.4" y1="204.9" x2="109.1" y2="187.1"/>
	<line class="st1" x1="68.8" y1="232.4" x2="89.4" y2="261.1"/>
	<line class="st1" x1="44.7" y1="197" x2="23.8" y2="165.1"/>
	<line class="st1" x1="37.7" y1="224.3" x2="3.6" y2="239.5"/>
</g>
</svg>
